<?xml version="1.0" standalone="no"?>
<!DOCTYPE svg PUBLIC "-//W3C//DTD SVG 20010904//EN"
 "http://www.w3.org/TR/2001/REC-SVG-20010904/DTD/svg10.dtd">
<svg version="1.0" xmlns="http://www.w3.org/2000/svg"
 width="483.000000pt" height="517.000000pt" viewBox="0 0 483.000000 517.000000"
 preserveAspectRatio="xMidYMid meet">

<g transform="translate(0.000000,517.000000) scale(0.100000,-0.100000)"
fill="#00e5ff" stroke="none">
<path d="M1476 4479 c-75 -87 -116 -199 -116 -315 l0 -56 31 26 c17 14 34 26
38 26 4 0 13 -24 21 -52 7 -29 26 -84 42 -123 16 -38 33 -82 38 -97 11 -35
118 -227 141 -253 10 -11 20 -31 23 -45 5 -22 -2 -30 -46 -58 -28 -18 -57 -31
-64 -28 -7 3 -28 25 -46 49 -33 43 -92 115 -238 286 -41 48 -82 97 -90 107 -8
11 -21 28 -29 37 -13 16 -11 20 10 35 13 9 35 22 49 28 24 11 23 13 -42 43
-37 17 -72 31 -78 31 -13 0 -161 74 -212 106 -21 13 -42 24 -46 24 -5 0 2 -37
15 -82 13 -46 40 -144 59 -218 19 -74 36 -136 38 -137 2 -2 15 15 30 37 14 22
30 40 35 40 9 0 122 -122 168 -182 28 -36 116 -141 206 -246 26 -30 47 -60 47
-66 0 -7 -20 -32 -45 -56 -51 -50 -36 -54 -155 50 -113 100 -306 227 -394 260
l-29 11 31 32 c18 18 32 36 32 39 0 4 -34 9 -74 13 -89 9 -196 -12 -272 -51
-86 -46 -86 -46 38 -82 176 -52 356 -143 486 -249 29 -24 57 -43 61 -43 8 0
51 -39 184 -168 l67 -66 30 35 c17 19 53 62 82 97 28 34 54 62 58 62 4 0 30
-29 59 -65 29 -36 55 -65 57 -65 11 0 113 74 118 85 2 7 -21 41 -51 75 -73 80
-72 80 100 170 31 17 57 34 57 38 0 4 -25 46 -56 92 -201 301 -312 581 -315
790 -1 41 -4 86 -8 99 -6 24 -7 23 -45 -20z"/>
<path d="M2398 4398 c-51 -11 -68 -34 -41 -54 10 -8 38 -28 62 -46 34 -25 47
-44 57 -79 17 -56 31 -69 124 -115 60 -29 82 -35 112 -30 21 4 38 3 38 0 0 -4
-12 -32 -26 -64 l-26 -58 21 -40 c25 -49 27 -89 6 -119 -21 -30 -136 -235
-138 -247 -1 -5 16 -15 39 -21 57 -18 102 -42 153 -84 51 -41 41 -49 127 94
80 135 99 153 164 165 32 6 59 17 65 26 6 9 20 29 32 43 l22 26 40 -45 c74
-83 158 -265 186 -400 17 -83 22 -229 10 -297 -5 -32 -3 -42 10 -47 24 -9 144
37 225 86 39 23 81 48 94 55 33 18 196 190 196 207 0 8 3 16 8 18 12 5 87 130
106 177 16 42 16 45 -1 61 -10 10 -58 38 -107 64 -49 26 -114 63 -144 83 -30
19 -65 38 -77 43 -22 8 -274 155 -355 206 -33 22 -46 37 -51 62 -4 19 -20 48
-37 65 -16 18 -33 47 -37 65 -15 71 -98 119 -189 108 -29 -3 -64 -1 -82 6 -46
16 -88 -4 -120 -58 -30 -52 -44 -56 -44 -14 0 29 -13 46 -64 88 -9 7 -44 27
-78 44 -53 28 -73 32 -147 34 -47 2 -107 -2 -133 -8z"/>
<path d="M2410 3520 c-30 -4 -68 -13 -85 -20 -16 -6 -54 -18 -83 -26 -29 -8
-63 -21 -75 -29 -13 -8 -48 -23 -79 -33 -59 -20 -122 -64 -133 -95 -4 -9 -10
-15 -15 -12 -13 8 -20 -23 -11 -48 5 -13 6 -30 1 -37 -5 -7 -4 -24 1 -37 5
-14 9 -27 9 -31 0 -8 -61 57 -82 87 -14 20 -16 19 -52 -20 -21 -22 -50 -46
-65 -54 -15 -7 -50 -45 -79 -83 -28 -38 -67 -81 -87 -96 -54 -41 -117 -173
-122 -256 -7 -87 12 -270 30 -312 9 -18 25 -73 37 -122 14 -56 33 -104 51
-129 16 -22 29 -50 29 -62 0 -13 7 -25 15 -29 8 -3 15 -14 15 -24 0 -10 9 -27
20 -37 11 -10 20 -23 20 -30 0 -7 11 -23 24 -37 12 -14 26 -33 29 -42 4 -9 13
-16 22 -16 8 0 15 -6 15 -12 0 -7 12 -21 28 -30 15 -10 39 -27 54 -39 49 -40
196 -51 266 -19 46 21 47 24 31 102 -18 89 -53 101 -96 33 -37 -60 -80 -69
-167 -36 -42 17 -28 21 31 9 67 -13 101 -5 116 30 18 42 58 92 73 92 14 0 12
8 -18 60 -4 8 -12 25 -17 37 -6 11 -14 24 -20 27 -5 4 -15 32 -21 64 -7 31
-19 65 -28 75 -8 9 -10 17 -5 17 18 0 33 -25 58 -100 13 -39 34 -87 46 -107
21 -33 71 -216 85 -309 3 -25 12 -48 19 -51 9 -3 12 -16 8 -38 -5 -28 -1 -36
23 -51 16 -10 42 -29 58 -42 34 -27 100 -62 129 -68 12 -2 25 -10 29 -18 11
-20 72 -56 94 -56 17 0 102 -37 114 -50 11 -12 63 -30 85 -30 13 0 27 -5 30
-11 4 -5 12 -8 18 -6 7 2 18 -2 25 -10 16 -15 60 -17 96 -3 18 7 26 6 26 -1 0
-26 130 37 130 64 0 6 5 4 11 -5 22 -38 127 -3 147 49 6 15 15 75 20 133 9
103 9 105 -16 132 -13 14 -21 31 -18 37 4 6 2 11 -3 11 -6 0 -11 -9 -11 -19 0
-31 -18 -34 -22 -5 -4 35 -37 41 -60 11 -16 -20 -18 -20 -18 -4 0 11 -6 17
-12 14 -7 -2 -12 -17 -11 -33 3 -28 2 -28 -9 -6 -13 25 -16 26 -53 12 -15 -6
-25 -16 -22 -23 3 -8 -6 -12 -24 -12 l-29 0 25 18 c21 16 25 27 25 68 0 27 5
49 10 49 9 0 15 -34 12 -72 -2 -21 2 -22 29 -8 14 8 19 21 19 56 l0 46 -47 -7
c-27 -3 -63 -15 -81 -26 -26 -15 -38 -17 -54 -8 -11 6 -29 8 -41 5 -11 -3 -29
0 -40 5 -26 15 -67 3 -67 -19 0 -38 62 -66 88 -40 9 9 12 7 12 -9 0 -11 7 -24
16 -27 16 -6 29 3 56 42 l16 24 7 -33 c10 -43 -12 -60 -62 -49 -19 5 -42 6
-51 3 -11 -5 -13 -3 -7 7 6 10 4 12 -8 7 -9 -3 -19 -2 -22 3 -3 5 -12 7 -19 4
-7 -3 -19 2 -26 10 -7 9 -16 13 -21 10 -5 -3 -6 2 -3 10 4 11 0 16 -12 16 -11
0 -28 7 -38 15 -11 8 -28 15 -38 15 -10 0 -18 5 -18 10 0 6 -7 10 -16 10 -10
0 -14 -6 -10 -15 4 -11 -1 -15 -18 -15 -19 0 -23 -4 -19 -20 9 -33 -3 -23 -39
31 -18 29 -41 64 -50 78 -17 25 -40 129 -52 224 -6 52 -38 107 -62 107 -7 0
-25 -18 -39 -40 -42 -66 -90 -76 -148 -29 -21 16 -27 29 -27 59 0 51 -8 70
-30 70 -11 0 -22 5 -25 10 -8 13 -5 12 32 0 34 -12 53 -45 46 -81 -6 -30 21
-56 62 -61 26 -3 30 0 33 25 3 28 -14 37 -35 16 -8 -8 -10 4 -9 43 1 46 -2 54
-21 63 -17 7 -20 15 -16 36 4 21 1 28 -13 32 -15 3 -10 8 21 23 28 13 68 20
135 22 121 4 119 4 222 -4 85 -6 87 -7 115 -43 43 -54 69 -103 77 -144 7 -38
17 -43 64 -31 17 5 22 14 23 43 1 31 2 33 8 11 4 -14 16 -29 27 -35 17 -8 19
-14 10 -28 -23 -36 38 -97 67 -68 8 8 5 19 -9 38 -34 47 -35 50 -8 68 24 16
25 16 17 -2 -10 -20 -10 -28 1 -60 5 -17 15 -23 37 -23 24 0 29 4 29 24 0 13
-11 40 -25 60 -22 33 -23 40 -2 37 4 0 7 5 7 13 0 9 15 16 43 20 23 3 59 8 80
12 30 5 41 3 51 -12 13 -17 14 -17 20 4 9 26 21 28 30 6 7 -19 106 -16 106 4
0 20 17 13 23 -10 4 -12 9 -19 12 -16 4 3 -1 20 -9 37 -9 16 -16 36 -16 44 0
7 -15 31 -33 53 -19 21 -39 49 -45 61 -15 27 -16 55 -1 31 5 -10 14 -18 19
-18 5 0 21 -5 37 -12 15 -6 31 -11 36 -10 4 1 7 -3 7 -8 0 -12 57 -14 63 -2 6
12 -28 205 -41 229 -8 14 -18 20 -27 17 -10 -4 -15 0 -15 14 0 12 -9 36 -20
56 -16 26 -22 55 -23 122 l-3 87 -38 33 c-21 18 -53 38 -71 44 -25 8 -37 21
-50 52 -17 43 -122 160 -191 212 -23 17 -76 59 -117 93 -59 49 -90 66 -144 82
-84 24 -152 31 -223 21z m-378 -427 c10 -9 18 -26 18 -37 -1 -19 -3 -18 -16 7
-8 15 -23 27 -34 27 -11 0 -20 5 -20 10 0 16 32 12 52 -7z m611 -54 c20 -5 38
-15 38 -22 1 -7 2 -25 3 -42 1 -17 7 -30 14 -30 7 0 17 -7 22 -15 8 -12 10
-12 10 5 1 20 1 20 15 1 17 -23 19 -76 5 -126 -10 -36 -6 -34 27 17 10 15 10
12 3 -16 -12 -44 -38 -82 -53 -79 -14 3 -77 -33 -77 -44 0 -4 -7 -8 -16 -8 -9
0 -23 -8 -32 -18 -10 -10 -13 -12 -9 -5 11 16 -31 27 -76 20 -45 -6 -126 35
-156 81 -13 20 -26 55 -29 77 -4 38 0 46 43 96 93 105 169 136 268 108z m460
-13 c80 -9 135 -74 123 -144 -3 -19 0 -44 5 -55 8 -14 8 -18 0 -13 -15 9 -14
2 4 -41 8 -19 15 -38 15 -42 0 -4 -26 -7 -59 -8 -65 -2 -100 19 -102 60 0 12
-10 49 -23 82 -20 57 -43 79 -99 98 -13 4 20 61 40 69 10 4 31 4 46 1 16 -3
38 -6 50 -7z m-293 -46 c0 -5 -2 -10 -4 -10 -3 0 -8 5 -11 10 -3 6 -1 10 4 10
6 0 11 -4 11 -10z m69 -46 c14 -12 -39 -1 -55 11 -17 13 -16 14 16 3 19 -6 37
-13 39 -14z m41 -45 c0 -24 8 -24 36 2 15 14 29 19 43 14 30 -9 63 -80 67
-144 2 -30 8 -59 14 -65 5 -5 10 -20 10 -31 0 -12 7 -43 16 -69 12 -35 13 -51
5 -59 -8 -8 -14 -8 -23 1 -8 8 -17 7 -37 -7 -46 -32 -81 -32 -112 -2 -34 35
-47 129 -31 240 9 61 8 82 -4 109 -18 44 -18 58 1 42 8 -7 15 -21 15 -31z
m-864 -104 c7 -19 14 -40 13 -47 0 -7 -5 1 -11 17 -6 17 -17 38 -26 48 -10 11
-11 17 -3 17 7 0 19 -16 27 -35z m167 -4 c-3 -12 3 -26 16 -37 16 -15 21 -30
21 -72 0 -46 -4 -58 -29 -83 -28 -27 -59 -41 -46 -19 3 5 -3 29 -13 53 l-19
43 29 29 c21 21 27 36 24 51 -7 25 2 54 14 54 5 0 6 -9 3 -19z m-129 -88 c11
-13 16 -23 13 -23 -10 0 -37 31 -37 42 0 6 1 9 3 7 1 -2 11 -14 21 -26z m1042
7 c6 -6 8 -24 6 -42 l-5 -31 -13 33 c-8 18 -14 36 -14 41 0 12 14 11 26 -1z
m144 -30 c0 -19 4 -51 10 -70 9 -32 8 -33 -5 -16 -8 11 -15 32 -15 47 0 15 -4
31 -10 34 -5 3 -15 15 -20 25 -9 17 -7 20 15 18 22 -2 25 -7 25 -38z m-730
-42 c-6 -7 -17 -22 -25 -33 -7 -11 -16 -17 -20 -14 -6 7 35 59 48 59 4 0 3 -6
-3 -12z m614 -71 c-2 -54 -2 -57 -11 -57 -5 0 -8 24 -9 54 0 36 4 52 11 50 6
-3 10 -24 9 -47z m-665 -24 c0 -25 -1 -26 -9 -8 -12 27 -12 35 0 35 6 0 10
-12 9 -27z m-334 7 c-3 -5 -24 -15 -47 -22 -28 -8 -46 -21 -57 -41 -9 -17 -25
-40 -36 -53 -17 -21 -24 -23 -50 -15 -23 7 -25 9 -9 10 24 1 74 37 74 53 0 17
53 58 75 58 11 0 27 5 35 10 19 12 23 12 15 0z m-280 -270 c-27 -12 -35 -12
-35 0 0 6 12 10 28 9 24 0 25 -1 7 -9z m474 -147 c-2 -55 48 -236 74 -271 5
-7 8 -15 5 -18 -9 -9 -49 87 -64 155 -8 36 -19 80 -25 97 -12 40 -12 64 1 64
6 0 10 -12 9 -27z m-154 -323 l6 -45 -20 55 c-25 65 -25 69 -6 50 8 -8 17 -35
20 -60z"/>
<path d="M1880 3308 c-11 -70 -10 -75 11 -93 l22 -20 -5 47 c-3 27 -1 51 5 57
8 8 5 11 -11 11 -12 0 -22 -1 -22 -2z"/>
<path d="M2177 2394 c-14 -14 -7 -42 13 -47 12 -3 20 -14 20 -26 0 -27 36 -47
56 -30 8 6 14 18 14 26 0 8 8 13 18 11 22 -4 28 34 8 51 -8 7 -25 11 -38 9
-19 -2 -23 -9 -21 -33 2 -30 2 -30 -11 5 -12 33 -42 50 -59 34z"/>
<path d="M3064 2275 c-3 -8 -2 -32 3 -52 7 -31 14 -39 36 -41 19 -2 27 1 27
12 0 22 9 20 29 -5 13 -16 23 -20 39 -14 20 6 22 11 16 43 -10 57 -56 84 -70
40 -6 -21 -7 -21 -21 5 -15 29 -50 36 -59 12z"/>
<path d="M2972 2254 c-13 -27 -8 -64 9 -64 5 0 8 -6 7 -12 -2 -7 9 -14 24 -16
22 -3 29 2 34 23 11 43 -8 90 -37 93 -19 2 -28 -3 -37 -24z"/>
<path d="M3230 2231 c0 -44 14 -59 50 -57 22 1 25 6 28 44 2 29 0 42 -7 37 -6
-3 -11 -1 -11 4 0 21 -19 11 -23 -11 l-4 -23 -2 23 c0 12 -8 22 -16 22 -11 0
-15 -11 -15 -39z"/>
<path d="M2757 2183 c-4 -3 -7 -28 -7 -55 0 -51 6 -55 58 -42 26 7 28 29 6 72
-14 30 -41 41 -57 25z"/>
<path d="M2704 2162 c-16 -11 -32 -45 -27 -59 7 -18 40 -16 47 3 8 22 8 64 -1
64 -5 0 -13 -4 -19 -8z"/>
<path d="M1639 1933 c-19 -23 -80 -125 -109 -183 -13 -25 -28 -49 -35 -55 -6
-5 -71 -111 -145 -234 -108 -182 -134 -232 -138 -270 -4 -44 -2 -49 32 -79 52
-46 159 -76 271 -76 114 -1 167 15 197 57 21 29 23 44 25 162 2 161 9 218 34
274 27 63 87 150 126 187 18 17 33 33 33 36 0 4 -17 9 -38 13 -44 7 -173 105
-204 154 -23 36 -29 38 -49 14z"/>
<path d="M3133 1863 c3 -10 8 -30 11 -45 4 -16 11 -28 16 -28 14 0 12 64 -2
78 -17 17 -30 15 -25 -5z"/>
<path d="M3083 1863 c-15 -5 -17 -51 -4 -72 5 -8 16 -11 26 -8 12 5 15 17 13
44 -3 36 -12 46 -35 36z"/>
<path d="M3180 1859 c0 -31 13 -79 21 -79 14 0 10 55 -6 76 -12 16 -14 16 -15
3z"/>
<path d="M2656 1833 c9 -35 6 -33 32 -26 37 9 20 53 -20 53 -15 0 -17 -5 -12
-27z"/>
<path d="M2600 1840 c0 -5 4 -10 9 -10 6 0 13 5 16 10 3 6 -1 10 -9 10 -9 0
-16 -4 -16 -10z"/>
<path d="M3250 1506 c0 -38 -32 -101 -56 -110 -11 -4 2 -26 53 -89 77 -94 370
-446 387 -464 8 -9 26 0 74 38 l63 50 -38 47 c-20 26 -45 54 -53 62 -9 8 -36
40 -61 71 -61 77 -164 199 -226 270 -29 32 -69 81 -89 109 -20 27 -40 50 -45
50 -5 0 -9 -15 -9 -34z"/>
</g>
</svg>
